<svg width="105" height="23" viewBox="0 0 105 23" fill="none" xmlns="http://www.w3.org/2000/svg">
<path d="M6.3 22.3C5.22 22.3 4.23 22.03 3.33 21.49C2.45 20.93 1.74 20.2 1.2 19.3C0.68 18.38 0.42 17.37 0.42 16.27V14.89C0.42 14.79 0.47 14.74 0.57 14.74H3.93C4.01 14.74 4.05 14.79 4.05 14.89V16.27C4.05 16.93 4.27 17.5 4.71 17.98C5.15 18.44 5.68 18.67 6.3 18.67C6.92 18.67 7.45 18.43 7.89 17.95C8.33 17.47 8.55 16.91 8.55 16.27C8.55 15.53 8.07 14.89 7.11 14.35C6.79 14.17 6.29 13.89 5.61 13.51C4.93 13.13 4.29 12.77 3.69 12.43C2.59 11.79 1.77 10.99 1.23 10.03C0.71 9.05 0.45 7.95 0.45 6.73C0.45 5.61 0.72 4.61 1.26 3.73C1.8 2.83 2.51 2.12 3.39 1.6C4.29 1.08 5.26 0.819999 6.3 0.819999C7.36 0.819999 8.33 1.09 9.21 1.63C10.11 2.15 10.82 2.86 11.34 3.76C11.88 4.64 12.15 5.63 12.15 6.73V9.19C12.15 9.27 12.11 9.31 12.03 9.31H8.67C8.59 9.31 8.55 9.27 8.55 9.19L8.52 6.73C8.52 6.03 8.3 5.46 7.86 5.02C7.42 4.58 6.9 4.36 6.3 4.36C5.68 4.36 5.15 4.6 4.71 5.08C4.27 5.54 4.05 6.09 4.05 6.73C4.05 7.39 4.19 7.94 4.47 8.38C4.75 8.82 5.26 9.24 6 9.64C6.1 9.7 6.29 9.81 6.57 9.97C6.87 10.11 7.19 10.28 7.53 10.48C7.87 10.66 8.17 10.82 8.43 10.96C8.71 11.1 8.88 11.19 8.94 11.23C9.94 11.79 10.73 12.48 11.31 13.3C11.89 14.1 12.18 15.09 12.18 16.27C12.18 17.41 11.91 18.44 11.37 19.36C10.85 20.26 10.14 20.98 9.24 21.52C8.36 22.04 7.38 22.3 6.3 22.3ZM14.3864 22C14.3064 22 14.2664 21.95 14.2664 21.85L14.2964 1.24C14.2964 1.16 14.3364 1.12 14.4164 1.12H24.0464C24.1264 1.12 24.1664 1.17 24.1664 1.27V4.63C24.1664 4.71 24.1264 4.75 24.0464 4.75H17.8964V9.43H24.0464C24.1264 9.43 24.1664 9.47 24.1664 9.55L24.1964 12.94C24.1964 13.02 24.1564 13.06 24.0764 13.06H17.8964V18.31H24.0764C24.1564 18.31 24.1964 18.36 24.1964 18.46V21.88C24.1964 21.96 24.1564 22 24.0764 22H14.3864ZM26.9841 22C26.9041 22 26.8641 21.95 26.8641 21.85L26.9241 1.24C26.9241 1.16 26.9641 1.12 27.0441 1.12H33.1041C34.1841 1.12 35.1741 1.39 36.0741 1.93C36.9941 2.45 37.7241 3.16 38.2641 4.06C38.8041 4.94 39.0741 5.94 39.0741 7.06C39.0741 7.8 38.9641 8.47 38.7441 9.07C38.5241 9.65 38.2641 10.15 37.9641 10.57C37.6641 10.97 37.3941 11.27 37.1541 11.47C38.2341 12.67 38.7741 14.08 38.7741 15.7L38.8041 21.85C38.8041 21.95 38.7541 22 38.6541 22H35.2641C35.1841 22 35.1441 21.97 35.1441 21.91V15.7C35.1441 14.98 34.8841 14.36 34.3641 13.84C33.8641 13.3 33.2441 13.03 32.5041 13.03H30.5241L30.4941 21.85C30.4941 21.95 30.4541 22 30.3741 22H26.9841ZM30.5241 9.43H33.1041C33.7241 9.43 34.2741 9.2 34.7541 8.74C35.2341 8.28 35.4741 7.72 35.4741 7.06C35.4741 6.42 35.2341 5.87 34.7541 5.41C34.2941 4.95 33.7441 4.72 33.1041 4.72H30.5241V9.43ZM41.4867 22C41.3867 22 41.3367 21.95 41.3367 21.85L41.3967 1.24C41.3967 1.16 41.4367 1.12 41.5167 1.12H47.2767C49.1167 1.12 50.5667 1.68 51.6267 2.8C52.7067 3.92 53.2467 5.44 53.2467 7.36C53.2467 8.78 52.9667 10.01 52.4067 11.05C51.8467 12.09 51.1167 12.89 50.2167 13.45C49.3167 14.01 48.3367 14.29 47.2767 14.29H44.9967V21.85C44.9967 21.95 44.9467 22 44.8467 22H41.4867ZM44.9967 10.66H47.2767C47.9167 10.66 48.4667 10.36 48.9267 9.76C49.4067 9.14 49.6467 8.34 49.6467 7.36C49.6467 6.58 49.4367 5.94 49.0167 5.44C48.5967 4.94 48.0167 4.69 47.2767 4.69L44.9967 4.72V10.66ZM55.1677 22C55.0877 22 55.0477 21.95 55.0477 21.85L55.0777 1.24C55.0777 1.16 55.1177 1.12 55.1977 1.12H64.8277C64.9077 1.12 64.9477 1.17 64.9477 1.27V4.63C64.9477 4.71 64.9077 4.75 64.8277 4.75H58.6777V9.43H64.8277C64.9077 9.43 64.9477 9.47 64.9477 9.55L64.9777 12.94C64.9777 13.02 64.9377 13.06 64.8577 13.06H58.6777V18.31H64.8577C64.9377 18.31 64.9777 18.36 64.9777 18.46V21.88C64.9777 21.96 64.9377 22 64.8577 22H55.1677ZM67.9153 22C67.7553 22 67.6753 21.93 67.6753 21.79L67.6453 1.36C67.6453 1.2 67.7253 1.12 67.8853 1.12H70.5853L75.6553 12.94L75.5053 1.36C75.5053 1.2 75.5953 1.12 75.7753 1.12H78.7453C78.8653 1.12 78.9253 1.2 78.9253 1.36L78.9553 21.82C78.9553 21.94 78.9053 22 78.8053 22H76.1653L70.9753 10.96L71.1853 21.76C71.1853 21.92 71.0953 22 70.9153 22H67.9153ZM84.5613 22C84.4813 22 84.4413 21.95 84.4413 21.85V4.75H80.5413C80.4413 4.75 80.3913 4.7 80.3913 4.6L80.4213 1.24C80.4213 1.16 80.4613 1.12 80.5413 1.12H91.9413C92.0413 1.12 92.0913 1.16 92.0913 1.24V4.6C92.0913 4.7 92.0513 4.75 91.9713 4.75H88.0413L88.0713 21.85C88.0713 21.95 88.0313 22 87.9513 22H84.5613ZM98.4492 22.3C97.3692 22.3 96.3792 22.03 95.4792 21.49C94.5992 20.93 93.8892 20.2 93.3492 19.3C92.8092 18.38 92.5392 17.37 92.5392 16.27L92.5692 6.76C92.5692 5.66 92.8292 4.66 93.3492 3.76C93.8892 2.86 94.6092 2.14 95.5092 1.6C96.4092 1.06 97.3892 0.789999 98.4492 0.789999C99.5292 0.789999 100.509 1.06 101.389 1.6C102.269 2.14 102.969 2.86 103.489 3.76C104.029 4.66 104.299 5.66 104.299 6.76L104.329 16.27C104.329 17.37 104.059 18.38 103.519 19.3C102.999 20.2 102.289 20.93 101.389 21.49C100.509 22.03 99.5292 22.3 98.4492 22.3ZM98.4492 18.67C99.0492 18.67 99.5692 18.43 100.009 17.95C100.469 17.45 100.699 16.89 100.699 16.27L100.669 6.76C100.669 6.1 100.459 5.54 100.039 5.08C99.6192 4.62 99.0892 4.39 98.4492 4.39C97.8292 4.39 97.2992 4.62 96.8592 5.08C96.4192 5.52 96.1992 6.08 96.1992 6.76V16.27C96.1992 16.93 96.4192 17.5 96.8592 17.98C97.2992 18.44 97.8292 18.67 98.4492 18.67Z" fill="white"/>
</svg>
